<mxfile host="app.diagrams.net" agent="Mozilla/5.0 (Windows NT 10.0; Win64; x64) AppleWebKit/537.36 (KHTML, like Gecko) Chrome/130.0.0.0 Safari/537.36" version="24.8.3">
  <diagram name="Página-1" id="9BX-1rEpyebg6mhpfF5h">
    <mxGraphModel dx="989" dy="532" grid="1" gridSize="10" guides="1" tooltips="1" connect="1" arrows="1" fold="1" page="1" pageScale="1" pageWidth="827" pageHeight="1169" math="0" shadow="0">
      <root>
        <mxCell id="0" />
        <mxCell id="1" parent="0" />
        <mxCell id="KpzjMOXNSKKPaIYUUBu_-8" style="rounded=0;orthogonalLoop=1;jettySize=auto;html=1;entryX=0;entryY=1;entryDx=0;entryDy=0;endArrow=none;endFill=0;" edge="1" parent="1" source="KpzjMOXNSKKPaIYUUBu_-1" target="KpzjMOXNSKKPaIYUUBu_-3">
          <mxGeometry relative="1" as="geometry" />
        </mxCell>
        <mxCell id="KpzjMOXNSKKPaIYUUBu_-10" style="rounded=0;orthogonalLoop=1;jettySize=auto;html=1;endArrow=none;endFill=0;" edge="1" parent="1" source="KpzjMOXNSKKPaIYUUBu_-1" target="KpzjMOXNSKKPaIYUUBu_-5">
          <mxGeometry relative="1" as="geometry" />
        </mxCell>
        <mxCell id="KpzjMOXNSKKPaIYUUBu_-11" style="rounded=0;orthogonalLoop=1;jettySize=auto;html=1;endArrow=none;endFill=0;" edge="1" parent="1" source="KpzjMOXNSKKPaIYUUBu_-1" target="KpzjMOXNSKKPaIYUUBu_-6">
          <mxGeometry relative="1" as="geometry" />
        </mxCell>
        <mxCell id="KpzjMOXNSKKPaIYUUBu_-1" value="usuário&lt;div&gt;&lt;br&gt;&lt;/div&gt;" style="shape=umlActor;html=1;verticalLabelPosition=bottom;verticalAlign=top;align=center;" vertex="1" parent="1">
          <mxGeometry x="300" y="260" width="30" height="70" as="geometry" />
        </mxCell>
        <mxCell id="KpzjMOXNSKKPaIYUUBu_-3" value="&lt;div style=&quot;&quot;&gt;&lt;span style=&quot;background-color: initial;&quot;&gt;cadastrar funcionário&lt;/span&gt;&lt;/div&gt;" style="ellipse;whiteSpace=wrap;html=1;align=center;" vertex="1" parent="1">
          <mxGeometry x="330" y="140" width="140" height="70" as="geometry" />
        </mxCell>
        <mxCell id="KpzjMOXNSKKPaIYUUBu_-4" value="&lt;div style=&quot;&quot;&gt;consultar Funcionário&lt;/div&gt;" style="ellipse;whiteSpace=wrap;html=1;align=center;" vertex="1" parent="1">
          <mxGeometry x="410" y="230" width="140" height="70" as="geometry" />
        </mxCell>
        <mxCell id="KpzjMOXNSKKPaIYUUBu_-5" value="&lt;div style=&quot;&quot;&gt;atualizar funcionário&lt;/div&gt;" style="ellipse;whiteSpace=wrap;html=1;align=center;" vertex="1" parent="1">
          <mxGeometry x="410" y="330" width="140" height="70" as="geometry" />
        </mxCell>
        <mxCell id="KpzjMOXNSKKPaIYUUBu_-6" value="&lt;div style=&quot;&quot;&gt;excluir funcionário&lt;/div&gt;" style="ellipse;whiteSpace=wrap;html=1;align=center;" vertex="1" parent="1">
          <mxGeometry x="290" y="410" width="140" height="70" as="geometry" />
        </mxCell>
        <mxCell id="KpzjMOXNSKKPaIYUUBu_-9" style="rounded=0;orthogonalLoop=1;jettySize=auto;html=1;entryX=0.029;entryY=0.7;entryDx=0;entryDy=0;entryPerimeter=0;endArrow=none;endFill=0;" edge="1" parent="1" source="KpzjMOXNSKKPaIYUUBu_-1" target="KpzjMOXNSKKPaIYUUBu_-4">
          <mxGeometry relative="1" as="geometry" />
        </mxCell>
        <mxCell id="KpzjMOXNSKKPaIYUUBu_-13" value="&lt;div style=&quot;&quot;&gt;solicitar confirmação de exclusão&lt;/div&gt;" style="ellipse;whiteSpace=wrap;html=1;align=center;" vertex="1" parent="1">
          <mxGeometry x="530" y="450" width="140" height="70" as="geometry" />
        </mxCell>
        <mxCell id="KpzjMOXNSKKPaIYUUBu_-14" value="&amp;lt;&amp;lt;include&amp;gt;&amp;gt;" style="edgeStyle=none;html=1;endArrow=open;verticalAlign=bottom;dashed=1;labelBackgroundColor=none;rounded=0;exitX=0.948;exitY=0.75;exitDx=0;exitDy=0;exitPerimeter=0;entryX=0.007;entryY=0.587;entryDx=0;entryDy=0;entryPerimeter=0;" edge="1" parent="1" source="KpzjMOXNSKKPaIYUUBu_-6" target="KpzjMOXNSKKPaIYUUBu_-13">
          <mxGeometry width="160" relative="1" as="geometry">
            <mxPoint x="440" y="470" as="sourcePoint" />
            <mxPoint x="610" y="530" as="targetPoint" />
          </mxGeometry>
        </mxCell>
      </root>
    </mxGraphModel>
  </diagram>
</mxfile>
